<svg width="200" height="150" viewBox="0 0 200 150" fill="none" xmlns="http://www.w3.org/2000/svg">
<rect width="200" height="150" rx="50" fill="#D59D40" fill-opacity="0.7"/>
<path d="M142.125 70.4534C142.451 70.6413 142.613 70.7353 142.723 70.8066C145.759 72.7781 145.759 77.2219 142.723 79.1934C142.613 79.2647 142.451 79.3587 142.125 79.5466L82.875 113.755C82.5494 113.943 82.3866 114.037 82.27 114.096C79.0448 115.739 75.1963 113.517 75.0069 109.903C75 109.772 75 109.584 75 109.208V40.792C75 40.416 75 40.2281 75.0069 40.0973C75.1963 36.4826 79.0448 34.2606 82.27 35.904C82.3866 35.9634 82.5494 36.0574 82.875 36.2454L142.125 70.4534Z" fill="white"/>
</svg>
