<svg width="59" height="59" viewBox="0 0 59 59" fill="none" xmlns="http://www.w3.org/2000/svg">
<path d="M60.0291 30.043C60.0291 34.3717 60.0411 38.7005 60.0291 43.0413C60.0049 49.3289 57.0787 53.9842 51.8552 57.273C48.796 59.1835 45.3983 60.0299 41.7951 60.0299C33.9114 60.0299 26.0398 60.0662 18.1562 60.0178C12.6787 59.9815 7.96303 58.0469 4.22676 53.9842C1.91728 51.4691 0.538846 48.5067 0.139826 45.0848C0.0551853 44.3593 0.0430937 43.6459 0.0430937 42.9204C0.0430937 34.2992 0.0310022 25.6779 0.0430937 17.0567C0.0793683 10.757 3.00551 6.10178 8.22904 2.81289C11.3124 0.890342 14.7222 0.0560275 18.3496 0.0560275C26.2091 0.0560275 34.0686 0.0197531 41.9281 0.0681191C47.4297 0.104394 52.1575 2.05113 55.8938 6.13806C58.1791 8.641 59.5454 11.6034 59.9323 14.989C60.0895 16.3191 60.017 17.6492 60.0291 18.9671C60.0411 22.6671 60.0291 26.3551 60.0291 30.043ZM4.52904 30.043C4.52904 34.4806 4.51695 38.906 4.52904 43.3436C4.54113 46.3907 5.65355 49.0145 7.73329 51.191C10.5264 54.1051 14.0088 55.5198 18.0111 55.544C25.9552 55.5923 33.8872 55.5561 41.8313 55.5561C44.3947 55.5561 46.8372 54.9998 49.0621 53.7181C53.2215 51.3361 55.5673 47.8296 55.5673 42.9204C55.5673 34.1904 55.5673 25.4724 55.5673 16.7423C55.5673 13.7194 54.467 11.1077 52.3993 8.94329C49.6304 6.01714 46.1359 4.57825 42.1457 4.55407C34.117 4.49361 26.1003 4.52989 18.0715 4.52989C15.5686 4.52989 13.1987 5.12237 11.0222 6.3557C6.8748 8.74982 4.51695 12.2564 4.52904 17.1655C4.52904 21.458 4.52904 25.7505 4.52904 30.043Z" fill="#464646"/>
<path d="M30.0783 42.8603C22.2672 42.8603 16.0038 36.6211 16.0159 28.8341C16.028 21.2528 22.376 15.0377 30.1267 15.0498C37.9136 15.0498 44.2012 21.3011 44.1891 29.0155C44.177 36.6574 37.8532 42.8603 30.0783 42.8603ZM30.0783 38.3864C35.3865 38.3864 39.7153 34.1665 39.7153 28.9792C39.7153 23.7678 35.4228 19.5237 30.1267 19.5237C24.8185 19.5237 20.4898 23.7436 20.4898 28.9309C20.4898 34.1423 24.7823 38.3864 30.0783 38.3864Z" fill="#464646"/>
<path d="M42.859 13.9118C42.859 12.1948 44.177 10.8164 45.8215 10.8164C47.4659 10.8164 48.7839 12.2069 48.7839 13.9118C48.7839 15.5926 47.4659 16.971 45.8456 16.9831C44.2012 16.9952 42.859 15.6288 42.859 13.9118Z" fill="#464646"/>
</svg>
