<svg width="59" height="57" viewBox="0 0 59 57" fill="none" xmlns="http://www.w3.org/2000/svg">
<path d="M49.7875 44.9352C48.1994 46.3381 46.4525 47.5468 44.5695 48.5827C42.6638 49.6187 40.6447 50.4173 38.5349 50.9784C36.425 51.5396 34.2017 51.8417 31.9103 51.8417C28.4393 51.8417 25.0589 51.3022 21.8828 50.2446C18.7747 49.2086 16.0069 47.6331 13.6929 45.5827C11.3788 43.5755 8.95133 40.2086 7.52207 37.036C6.2743 34.2734 5.7525 31.295 5.7525 26.6978C5.7525 23.4388 6.54654 19.8345 7.90774 16.7698C9.22357 13.8345 11.0612 11.2446 13.3526 9.08633C15.6212 6.94964 18.389 5.20144 21.5879 3.90647C24.4464 2.76259 27.8267 2.20144 31.933 2.20144C35.1772 2.20144 38.2853 2.69784 41.1212 3.66906C43.8889 4.6187 46.3164 5.97842 48.3355 7.72662C50.1959 9.34532 51.3529 11.3094 52.578 13.964C53.6442 16.2302 54.0526 18.2374 54.0526 21.3669C54.0526 23.9137 53.5762 26.3525 52.646 28.5755C51.7159 30.7554 51.0126 32.0935 49.606 33.7554C48.1314 35.4388 47.3146 36.3669 45.7492 37.2302C43.9343 38.2446 42.5504 38.7194 41.4388 38.7194C40.554 38.7194 40.2817 38.5252 40.259 38.5036C40.1229 38.3957 40.0095 38.2446 39.9414 37.8777C39.8734 37.3813 39.9414 36.7122 40.1456 35.9568C40.3725 35.0935 40.7128 34.2734 41.2119 33.1295L50.2866 9.94964H44.32L43.2764 12.5827C42.4597 11.6763 41.4841 10.8993 40.3952 10.295C37.8089 8.8705 35.631 8.28777 32.8632 8.28777C29.6417 8.28777 26.6243 9.08633 23.9473 10.6619C21.3383 12.1942 19.0923 14.1799 17.3001 16.554C15.5305 18.8849 15.0768 20.1367 14.26 22.446L14.1239 22.8345C13.1484 25.5971 12.6493 28.3165 12.6493 30.9281C12.6493 32.6763 12.9896 34.3813 13.6475 35.9568C14.3054 37.554 15.2129 38.9352 16.3472 40.0575C17.4589 41.223 18.8428 42.1511 20.4762 42.8633C22.0643 43.554 23.8112 43.9209 25.6942 43.9209C27.7813 43.9209 29.687 43.5971 31.9103 42.8633C33.1354 42.4532 34.2244 41.8705 35.268 41.0288C35.4948 41.3957 35.7898 41.7194 36.1301 42.0216C37.4459 43.2734 39.1928 43.9209 41.28 43.9209C43.3671 43.9209 45.6131 43.2518 48.3128 41.8058C50.7176 40.5108 52.1242 39.0216 53.8484 37.0576C55.7995 34.8345 56.775 32.9352 57.8186 30.4101C58.9983 27.6259 59.5882 24.5827 59.5882 21.3885C59.5882 17.3741 59.021 14.6331 57.569 11.6115C56.0263 8.41726 54.461 5.84892 51.8974 3.69065C49.3564 1.53237 46.3164 -0.129498 42.868 -1.29497C39.465 -2.43885 35.8124 -3 31.9784 -3C27.3049 -3 23.312 -2.33094 19.7956 -0.971224C15.9842 0.496402 12.6039 2.56835 9.74537 5.15827C6.88684 7.79137 4.59547 10.9424 2.96203 14.482C1.26052 18.1511 0.307678 22.5971 0.307678 26.7194C0.307678 32.2662 1.03365 36.1511 2.73516 39.6906C4.61816 43.5755 7.68087 47.5683 10.5167 49.8993C13.4887 52.3597 16.8917 54.1727 20.635 55.295C24.333 56.4173 28.167 57 31.9784 57C34.5874 57 37.2644 56.6547 39.9414 55.9856C42.6412 55.2734 45.1594 54.3022 47.4281 53.0719C49.7421 51.8417 51.9654 50.3093 54.0072 48.4964C56.049 46.6834 58.3631 43.8561 59.1798 42.4748C59.6109 41.7194 59.8831 41.1583 60.0192 40.8129H53.7577C52.5553 42.2158 51.2621 43.6187 49.7875 44.9352ZM33.8614 34.6834C32.8405 35.9137 32.1826 36.6475 31.3885 37.1439C30.5038 37.7266 29.8005 38.0935 28.893 38.2878H28.8703C27.9628 38.5036 26.9873 38.6331 25.9891 38.6331C24.8321 38.6331 23.7885 38.4388 22.8583 38.0504C21.9055 37.6619 21.1114 37.1439 20.4081 36.4317C19.7275 35.741 19.1604 34.9209 18.752 33.9712C18.3663 33.0216 18.1622 31.964 18.1622 30.8417C18.1622 28.8993 18.5478 26.7842 19.3192 24.5827C19.4099 24.3237 19.5007 24.0432 19.5687 23.8489C20.1813 22.0576 20.4989 21.4964 21.6332 19.705C22.6768 18.0647 24.3103 16.554 26.5789 15.1079C28.3712 13.964 30.3676 13.3813 32.5456 13.3813C33.4303 13.3813 34.3605 13.4892 35.336 13.6835C36.0393 13.8345 36.4023 14.0288 37.1056 14.4173L37.151 14.4388C37.2417 14.482 37.3325 14.5252 37.4459 14.5899L37.514 14.6331C38.308 15.0647 39.0113 15.6259 39.6238 16.3165C40.1002 16.8561 40.4859 17.5468 40.7808 18.4101L36.2208 30.6043C35.5175 32.2446 34.7235 33.6259 33.8614 34.6834Z" fill="#464646"/>
</svg>
