<svg width="60" height="60" viewBox="0 0 60 60" fill="none" xmlns="http://www.w3.org/2000/svg">
<path d="M60 47.3864C60 48.1534 59.8579 49.1548 59.5739 50.3906C59.2898 51.6264 58.9915 52.5994 58.679 53.3097C58.0824 54.7301 56.3494 56.2358 53.4801 57.8267C50.8097 59.2756 48.1676 60 45.554 60C44.7869 60 44.0412 59.9503 43.3168 59.8509C42.5923 59.7514 41.7756 59.5739 40.8665 59.3182C39.9574 59.0625 39.2827 58.8565 38.8423 58.7003C38.402 58.544 37.6136 58.2528 36.4773 57.8267C35.3409 57.4006 34.6449 57.1449 34.3892 57.0597C31.6051 56.0653 29.1193 54.8864 26.9318 53.5227C23.2955 51.2784 19.5384 48.2173 15.6605 44.3395C11.7827 40.4616 8.72159 36.7045 6.47727 33.0682C5.11364 30.8807 3.93466 28.3949 2.94034 25.6108C2.85511 25.3551 2.59943 24.6591 2.1733 23.5227C1.74716 22.3864 1.45597 21.598 1.29972 21.1577C1.14347 20.7173 0.9375 20.0426 0.681818 19.1335C0.426136 18.2244 0.24858 17.4077 0.149148 16.6832C0.0497159 15.9588 0 15.2131 0 14.446C0 11.8324 0.724432 9.19034 2.1733 6.51989C3.7642 3.65057 5.26989 1.91761 6.69034 1.32102C7.40057 1.00852 8.37358 0.710227 9.60937 0.426136C10.8452 0.142045 11.8466 0 12.6136 0C13.0114 0 13.3097 0.0426136 13.5085 0.127841C14.0199 0.298295 14.7727 1.37784 15.767 3.36648C16.0795 3.90625 16.5057 4.6733 17.0455 5.66761C17.5852 6.66193 18.0824 7.56392 18.5369 8.37358C18.9915 9.18324 19.4318 9.94318 19.858 10.6534C19.9432 10.767 20.1918 11.1222 20.6037 11.7188C21.0156 12.3153 21.321 12.8196 21.5199 13.2315C21.7187 13.6435 21.8182 14.0483 21.8182 14.446C21.8182 15.0142 21.4134 15.7244 20.6037 16.5767C19.794 17.429 18.9134 18.2102 17.9616 18.9205C17.0099 19.6307 16.1293 20.3835 15.3196 21.179C14.5099 21.9744 14.1051 22.6278 14.1051 23.1392C14.1051 23.3949 14.1761 23.7145 14.3182 24.098C14.4602 24.4815 14.581 24.7727 14.6804 24.9716C14.7798 25.1705 14.9787 25.5114 15.277 25.9943C15.5753 26.4773 15.7386 26.7472 15.767 26.804C17.9261 30.696 20.3977 34.0341 23.1818 36.8182C25.9659 39.6023 29.304 42.0739 33.196 44.233C33.2528 44.2614 33.5227 44.4247 34.0057 44.723C34.4886 45.0213 34.8295 45.2202 35.0284 45.3196C35.2273 45.419 35.5185 45.5398 35.902 45.6818C36.2855 45.8239 36.6051 45.8949 36.8608 45.8949C37.3722 45.8949 38.0256 45.4901 38.821 44.6804C39.6165 43.8707 40.3693 42.9901 41.0795 42.0384C41.7898 41.0866 42.571 40.206 43.4233 39.3963C44.2756 38.5866 44.9858 38.1818 45.554 38.1818C45.9517 38.1818 46.3565 38.2812 46.7685 38.4801C47.1804 38.679 47.6847 38.9844 48.2812 39.3963C48.8778 39.8082 49.233 40.0568 49.3466 40.142C50.0568 40.5682 50.8168 41.0085 51.6264 41.4631C52.4361 41.9176 53.3381 42.4148 54.3324 42.9545C55.3267 43.4943 56.0937 43.9205 56.6335 44.233C58.6222 45.2273 59.7017 45.9801 59.8722 46.4915C59.9574 46.6903 60 46.9886 60 47.3864Z" fill="#464646"/>
</svg>
